<?xml version="1.0" encoding="utf-8"?>
<!-- Generator: Adobe Illustrator 21.1.0, SVG Export Plug-In . SVG Version: 6.00 Build 0)  -->
<svg version="1.1" id="Laag_1" xmlns="http://www.w3.org/2000/svg" xmlns:xlink="http://www.w3.org/1999/xlink" x="0px" y="0px"
	 viewBox="0 0 182 225" style="enable-background:new 0 0 182 225;" xml:space="preserve">
<style type="text/css">
	.st0{clip-path:url(#SVGID_2_);fill:#FFBA00;}
	.st1{clip-path:url(#SVGID_2_);fill:#F5050C;}
	.st2{clip-path:url(#SVGID_2_);fill:#6C1417;}
</style>
<g>
	<defs>
		<rect id="SVGID_1_" x="0.4" y="0.9" width="181.1" height="223.3"/>
	</defs>
	<clipPath id="SVGID_2_">
		<use xlink:href="#SVGID_1_"  style="overflow:visible;"/>
	</clipPath>
	<path class="st0" d="M12.9,103.9c5.2-14.2,17.4-25,13.1-43.2c5,4.7,8.4,14.1,9.4,26.6c3.3-4.6,4.1-12.8,4.4-19.8
		C40.1,56,46.9,44.7,55.1,37c4.1-3.8,9-6.8,14.4-7.9c-2.7,2.7-5.5,5.6-6.5,9.3c-1.2,4.6,0.6,16.4,2.8,20.7c1.3,2.5,3.4,5.3,6.2,4.9
		c3.7-0.6,5.3-13.1,6.4-16.1c1.4-4,2.1-8.3,3.7-12.3c2.7-6.5,8.7-11.6,10.1-18.6c0.9-4.5-0.3-9.6-3.2-16.2c0.6,1.3,5.2,3.3,6.4,4.2
		c2,1.5,3.8,3.1,5.6,4.9c3.3,3.4,6.2,7.3,8.3,11.6c1.8,3.8,3.2,8.3,3.3,12.6c0.1,6-1.7,18.1-1.1,24.1c0.2,1.8,0.5,3.7,1.4,5.3
		c3.9,6.6,10.4,3,13-2.1c4.7-9.1,0.3-34.7,0.3-34.7c6.6,4.6,18.8,12.8,23.2,36.3c1.1,6-0.3,14.8-2,23.5c5-13.4,9.8-21.1,17.8-24.2
		c0,0-8.4,13.5-1.4,39.4c1.7,6.2,6,19,6,19s2.4-3.4,0.1-13.3c0,0,15.2,16,10.8,47.1c-3.4,24.1-13.3,36.9-26.4,48
		c-14.3,12.1-38.6,21.5-65.4,21.5c-25.8,0-51.7-9.5-65.2-21.5c-13-11.5-20.8-28.7-23-51.8c-2.3-24.3,8.4-42.4,8.4-42.4
		s-2.2,6,0.3,14.2C9.4,122.7,10.4,110.6,12.9,103.9"/>
	<path class="st1" d="M35.2,138.2c0.2,2,1.3,4,4.3,4.2c3.4,0.2,8.4-1.8,12.6-13.1c2-5.2,3.9-10.5,5.8-15.7c1.1-3,2.1-3.2,3.1-3.2
		c0.3,0,0.7,0.1,1.1,0.1c0.1,0,0.2,0,0.3,0c0.4-1.7,0.7-3.3,1.1-5c-0.1,0-0.2-0.1-0.3-0.1c-4.9-1.4-8.3,0.5-10.2,5.9
		c-2.1,5.6-4.2,11.2-6.4,16.8c-2.1,4.9-4.9,8.5-6.5,8.4c-0.2,0-0.3-0.1-0.4-0.2c-0.2-0.3-0.3-1.4,1.1-5.1c3-7.6,5.9-15.2,8.7-22.8
		c-1.9-0.1-3.7-0.2-5.6-0.4c-2.5,6.5-5,12.9-7.6,19.4c-2.1,4.9-5,8.4-6.6,8.3c-0.2,0-0.3-0.1-0.4-0.2c-0.2-0.3-0.3-1.5,1.2-5.1
		c0,0,0.8-1.9,7.3-18.4c1.2-3.1,3-3.9,3-3.9c0.1,0,0.2-0.1,0.2-0.1c-0.3-1.3-0.5-2.7-0.8-4c-0.1,0-0.2,0-0.2,0
		c-2.1-0.2-4.3,1.1-5.9,3.5c-1.2,0.5-2.5,0.9-3.7,1.3c-6.1,2-12.5,3.9-13.2,11.4c-0.2,2.5,0.4,4.7,1.7,6.4c1.2,1.5,2.8,2.4,4.8,2.6
		c0.1,0,0.2,0,0.3,0c0.1-1.9,0.3-3.9,0.4-5.8c-0.1,0-0.2,0-0.3,0c-0.8-0.1-2.2-0.8-2.1-2.9c0.3-3.4,4.1-4.6,8.1-5.9
		c0.3-0.1,0.6-0.2,0.9-0.3c-1.8,4.5-3.6,8.9-5.5,13.4c-2.2,5.3-2.7,9.4-1.3,11.7c0.7,1.2,1.9,2,3.5,2.1
		C31.2,141.8,33.9,139.5,35.2,138.2"/>
	<path class="st1" d="M65.8,126.1c-0.9,2.5-1.8,5-2.7,7.6c-0.5,0.9-2.1,3.2-3.6,3.1c-0.2,0-0.8,0-0.8-1.4c0.1-3.1,3.2-11.8,5.9-11.7
		C65.8,123.8,65.8,125.8,65.8,126.1 M154.6,121.2c0.4,0,0.5,0.1,0.6,0.2c0.2,0.2,0.3,0.8-0.2,2.4c-0.5,1.8-1.2,3.6-3.5,3.8
		c-0.3,0-0.5,0-0.8,0C151.2,125.5,152.6,121.4,154.6,121.2 M162.3,126.2c0,0.1-0.1,0.1-0.1,0.2c-2,5.6-5.5,9.2-9.1,9.6
		c-1.1,0.1-2-0.2-2.5-0.8c-0.9-1-0.8-2.8-0.7-3.5c0.8,0,1.6,0,2.3,0c4.2-0.4,6.7-2.5,7.8-6.6c0.9-3.1,0.6-5.8-0.8-7.5
		c-1.1-1.4-2.8-2.1-4.8-1.9c-4.1,0.4-6.5,4-7.9,6.9c-0.8,1.8-1.4,3.8-1.8,5.8c-2.2,5.4-4.5,8.7-6.2,8.8c-0.3,0-0.4-0.1-0.4-0.1
		c-0.2-0.3-0.5-1.4,0.5-5.1c1.3-4.7,2.5-9.4,3.7-14.1c1-0.1,1.9-0.1,2.9-0.2c0.3-1.3,0.7-2.6,1-3.9c-1,0.1-1.9,0.2-2.9,0.2
		c0.5-1.9,1-3.8,1.5-5.8c-1.9,0.1-3.7,0.3-5.6,0.4c-0.5,1.9-1,3.8-1.5,5.7c-1,0.1-2,0.1-3,0.2c-0.3,1.3-0.7,2.6-1,3.9
		c1-0.1,2-0.1,3-0.2c-1,3.7-2,7.4-3,11.1c-1.3,3.2-2.6,5.4-3.9,6.9c0-0.5,0-1.1,0-1.9c0-0.6-0.1-1.4-0.2-2.3
		c-0.3-3.5-0.8-8.7-0.3-13.6c0-0.1,0-0.2,0-0.3c-1.6-0.5-3.2-1-4.8-1.5c0,0.1-0.1,0.2-0.1,0.3c-1.2,3.8-3.3,9.4-4.7,12.5
		c0,0,0,0.1-0.1,0.1c-2.6,6-4.9,8.7-6.1,8.8c-0.2,0-0.2,0-0.3-0.1c-0.2-0.2-0.4-1.2,0.7-5.1c0.6-1.9,1.1-3.9,1.7-5.8
		c0.8-2.5,1-4,1-5.3c-0.1-2.5-1.5-4-3.7-3.9c-2.2,0.1-4.5,1.8-6,3.4c-0.1-0.9-0.5-1.7-1-2.2c-0.6-0.7-1.5-1-2.5-1
		c-1.9,0-3.7,1.2-4.8,2.2c0.2-0.5,0.3-1,0.5-1.6c-1.9,0-3.8,0-5.6,0c-1.2,3.8-2.5,7.6-3.7,11.4c-2.6,5.4-4.4,8.2-5.3,8.2
		c-0.1,0-0.2,0-0.2-0.1c-0.2-0.3-0.5-1.3,0.8-5.1c0.4-1.2,0.8-2.5,1.2-3.7c0.3-1,0.5-1.7,0.5-2.3c0-2.6-2.3-4.6-4-6.1
		c-0.5-0.4-0.9-0.8-1.2-1.1c0.4-1.2,0.8-2.5,1.2-3.7c-0.8-0.6-1.6-1.3-2.5-1.9c-0.1,0-0.1,0-0.2,0.1c-1.6,0.6-3.5,3-3.5,5.3
		c0,1.2,0.5,2.1,1,2.8c-1,2.6-2.1,5.1-3,7.1c0,0,0,0,0,0c-2.9,5.9-5.4,8.5-6.6,8.5c-0.2,0-0.2-0.1-0.3-0.1c-0.2-0.3-0.3-1.4,1-5
		c1.7-4.8,3.4-9.6,5-14.3c-1.9,0-3.8-0.1-5.6-0.2c-0.3,0.8-0.6,1.5-0.8,2.3c-0.4-1.2-1.5-2.9-3.9-3c-6.9-0.3-10.5,13.9-10.7,18.5
		c-0.2,3.6,1.4,5.9,4,6.1c2.5,0.1,4.6-1.9,5.5-3c0.3,1.2,1.2,3.2,4,3.3c3.7,0.1,7.2-3.3,10.8-10.8h0c0,0,0-0.1,0.1-0.1
		c0,0,0-0.1,0-0.1c0,0,0-0.1,0.1-0.1c0,0,0,0,0,0c1.1-2.3,2-4.5,2.8-6.7c0.8,0.9,1.3,1.5,1.3,2.2c0,0.3-0.1,0.8-0.3,1.4
		c-0.4,1.2-0.8,2.5-1.3,3.7c-1.8,5.2-1.1,7.9-0.3,9.2c0.7,1.1,1.9,1.7,3.3,1.7c1.2,0,2.3-0.4,3.3-1.2c-0.1,0.2-0.2,0.5-0.2,0.7
		c1.9,0,3.9,0,5.8,0c1.7-5.2,3.4-10.3,5-15.5c1.4-2.1,3-3,3.8-3c0.4,0,0.6,0.2,0.6,0.5c0,0.6-0.5,2.2-1,3.9c0,0.2-0.1,0.3-0.2,0.5
		c-0.5,1.7-1.6,5.3-2.7,8.4c-0.6,2-1.2,3.8-1.5,4.7c0,0.1-0.1,0.3-0.1,0.4c1.9,0,3.9,0,5.8-0.1c1.7-5.2,3.3-10.4,4.9-15.6
		c1.4-2,2.9-3,3.8-3c0.3,0,0.7,0.1,0.7,0.6c0,0.5-0.4,1.9-0.8,3.4c-0.4,1.2-0.7,2.4-1.1,3.6c-1.4,4.8-1.5,8.2-0.2,10
		c0.7,1,1.8,1.5,3.3,1.4c3.6-0.1,6.9-3.8,10.2-11.5h0c0,0,0-0.1,0.1-0.1c0,0,0,0,0-0.1c0,0,0-0.1,0.1-0.1c0,0,0,0,0,0
		c0.6-1.5,1.3-3.2,1.8-4.7c0,1.2,0.1,2.3,0.2,3.4c0.1,0.9,0.1,1.8,0.1,2.6c0.2,4.5-0.6,5.1-1.4,5.1c-0.5,0-0.8-0.1-1.2-0.6
		c-0.1-0.1-0.1-0.2-0.2-0.2c-1,0.9-2.1,1.7-3.1,2.6c0,0.1,0,0.1,0.1,0.2c0.1,0.4,2,3.2,6.2,3c3.4-0.2,5.9-1.9,7.9-4.5
		c0.2,1,0.5,1.8,1,2.4c0.8,1,2,1.5,3.6,1.4c2.7-0.2,5.2-2.3,7.6-6.2c0.9,3.6,3.4,5.5,7.4,5.1c6.9-0.6,10.8-7.2,12.7-12.6
		c0,0,0-0.1,0-0.1c0,0,0-0.1,0-0.1"/>
	<path class="st1" d="M71.3,103.8c0-0.8,0.7-1.6,1.9-1.6c0.9,0,1.9,0.5,3.3,1.7c-1,0.8-2.1,1.3-3.2,1.2
		C72.9,105.2,71.3,105.1,71.3,103.8 M73.5,110.1c2.6,0.1,5-0.8,7-2.5c2.3,2,4.2,3.4,7.4,3.5c9.9,0,15-12.1,14.8-20.7
		c-0.1-8.7-5-14-12.8-14c-9,0-14,6.9-14.2,13.7c-0.1,3.8,1.4,6.2,1.5,6.3c0.1,0.1,0.1,0.2,0.2,0.3c1.3-1,2.6-2,3.9-3
		c0-0.1-0.1-0.2-0.1-0.3c0,0-0.8-1.6-0.7-3.4c0.1-3.7,3.3-8.8,9.2-8.7c4.8,0,7.6,3.3,7.6,9.2c0.1,7-4.2,15.6-9.6,15.6
		c-1.6,0-2.9-0.7-4.3-1.8c0.9-1.3,1.6-2.9,2.3-4.6c0,0,0,0,0-0.1c0.2-0.6,2.5-6.6,3.7-9.8c1-2.7,2.7-3.5,2.7-3.5
		c0.1,0,0.2-0.1,0.3-0.1c-0.4-1.2-0.7-2.3-1.1-3.5h-0.2c-3.2,0-5.7,2.8-6.8,5.5c-1.2,3.2-2.4,6.4-3.7,9.6c-0.4,1.1-0.9,2.1-1.4,3
		c-2.3-1.8-4-2.6-6-2.6c-4.5-0.1-6.2,3.5-6.3,5.9C66.8,106.9,68.8,110,73.5,110.1"/>
	<path class="st1" d="M113.3,93c0.3,0,0.5,0.1,0.6,0.2c0.1,0.2,0.2,0.7-0.3,2c-0.5,1.6-1.4,3-3.7,3.1c-0.2,0-0.5,0-0.8,0
		C109.5,96.9,111.2,93.1,113.3,93 M120.6,97.5c0,0.1-0.1,0.1-0.1,0.2c-2.3,4.7-5.9,7.7-9.5,7.8c-1.2,0-2.1-0.3-2.6-1
		c-0.6-0.9-0.5-2.2-0.4-2.8c0.8,0.1,1.6,0.1,2.3,0.1c0,0,0,0,0,0c4.1-0.1,6.7-1.8,8-5.4c1.2-3.1,0.6-5.1-0.1-6.2
		c-1-1.5-2.7-2.4-4.9-2.3c-4.1,0.1-6.6,3.1-8.1,5.6c-1.7,2.8-2.7,6.5-2.7,9.4c0.1,4.3,2.6,6.7,7.2,6.6c6.8-0.2,10.9-5.7,13.1-10.2
		c0,0,0-0.1,0.1-0.1c0,0,0-0.1-0.1-0.1"/>
	<path class="st1" d="M91,163.9c0.4,0,0.6,0.1,0.8,0.3c0.2,0.3,0.1,1.1-0.5,2.3c-0.7,1.7-1.8,3.4-4.6,3.4c-0.3,0-0.7,0-1.1-0.1
		C86.2,168.4,88.4,163.9,91,163.9 M111.9,163.5c0.4,0,0.6,0.1,0.8,0.2c0.2,0.3,0.1,1.1-0.4,2.3c-0.6,1.7-1.7,3.4-4.5,3.5
		c-0.3,0-0.7,0-1.1,0C107.2,168.2,109.2,163.6,111.9,163.5 M144,167.4c0,0.1-0.1,0.1-0.1,0.2c-2.6,5.3-6.7,8.9-8.9,9.1
		c-0.5,0.1-0.9,0-1.2-0.3c-0.6-0.6-0.9-1.8-0.9-3.6c2.8-0.5,5.2-2.6,6.6-5.8c0.4-1,1.8-4.3,1.6-6.6c-0.1-2.3-1.9-3.7-4.5-3.5
		c-2.5,0.2-4.6,1.6-5.8,2.5c1.2-3.5,2.4-6.9,3.5-10.4c-2.2,0.1-4.4,0.3-6.6,0.4c-2.3,6.7-4.7,13.3-7.1,20c-2.8,5.1-7.2,8.4-11.5,8.5
		c-1.5,0-2.6-0.3-3.3-1.1c-0.8-1.1-0.6-2.7-0.5-3.2c1,0.1,2,0.1,2.8,0.1c5-0.1,8.2-2.1,9.8-6c1.5-3.5,0.8-5.7-0.1-6.9
		c-1.2-1.7-3.3-2.6-5.9-2.5c-4.9,0.2-8.1,3.5-9.9,6.3c-1.1,1.7-1.9,3.6-2.5,5.5c-2.9,5.1-7.4,8.2-11.7,8.2c-1.6,0-2.6-0.4-3.2-1.2
		c-0.8-1.1-0.5-2.7-0.4-3.3c1,0.1,1.9,0.2,2.8,0.2c5,0,8.2-1.8,10-5.7c1.6-3.4,0.9-5.7,0.1-6.9c-1.1-1.7-3.3-2.7-5.8-2.7
		c-4.9,0-8.2,3.2-10,6c-2.1,3.1-3.5,7.2-3.6,10.5c-0.1,4.9,2.9,7.6,8.5,7.7c5.6,0,9.8-2.7,12.7-6c0.7,3.8,3.6,5.9,8.6,5.8
		c3.8-0.1,7-1.5,9.5-3.4c-0.3,0.9-0.7,1.7-1,2.6c2.3-0.1,4.6-0.2,6.9-0.3c1.9-5.1,3.7-10.2,5.5-15.3c1.9-2.3,3.7-3.1,4.6-3.2
		c0.6,0,1.4,0.2,1.5,0.7c0,0.6-0.3,1.9-0.5,2.5c0,0.1,0,0.2-0.1,0.2c-1.3,3.8-4.2,3.9-5.4,4c-1.4,0.1-1.9,0.9-2,3
		c-0.1,2.6,0.7,5,2.3,6.5c1.2,1.2,2.8,1.8,4.6,1.7c5.7-0.3,11.1-7.3,13.3-11.9c0,0,0-0.1,0.1-0.1c0,0,0-0.1-0.1-0.1"/>
	<path class="st1" d="M61.6,181.5c0,0-0.1,0-0.1,0c0.1,0,0.2,0,0.3,0C61.7,181.5,61.6,181.5,61.6,181.5 M48.3,179.8
		c-0.1,0-0.2,0-0.3,0c0.1,0,0.3,0,0.4,0C48.4,179.8,48.3,179.8,48.3,179.8 M61.4,145.9C61.4,145.9,61.4,145.9,61.4,145.9L61.4,145.9
		C61.3,145.9,61.4,145.9,61.4,145.9 M84.6,146.8c0.2,0,0.3,0,0.5,0C84.9,146.8,84.7,146.8,84.6,146.8
		C84.6,146.8,84.6,146.8,84.6,146.8 M106.1,155.2c-0.1,0-0.3,0-0.4,0c0,0-0.1,0-0.1,0C105.8,155.2,106,155.2,106.1,155.2
		 M115.4,144.8L115.4,144.8c-0.1,0-0.2,0.1-0.2,0.1l0,0c-0.3,0.5-0.6,0.9-0.9,1.2c-0.6,0.8-1.5,1.9-2.8,2.9c-0.7,0.6-1.4,1-2,1.2
		c-0.1,0-0.2,0.1-0.3,0.1c-0.3,0.1-0.7,0.2-1,0.3c-0.5,0.1-1,0.2-1.4,0.3c-0.3,0-0.6,0.1-1,0.1c-0.7,0-1.4,0-2,0
		c-1-0.1-2-0.3-3.2-0.6c-1.1-0.3-2.1-0.6-3.3-0.9c-0.4-0.1-0.8-0.2-1.1-0.4c-0.7-0.2-1.4-0.4-2.1-0.7c-0.2-0.1-0.3-0.1-0.5-0.2
		c-0.4-0.1-0.7-0.2-1.1-0.4c-0.5-0.2-1-0.3-1.5-0.5c0,0,0,0,0,0c-1-0.3-2-0.5-3-0.7c-0.8-0.1-1.8-0.3-2.7-0.3c-0.2,0-0.3,0-0.5,0
		c-0.6,0-1.2,0.1-1.7,0.2c-3.1,0.5-5.4,2.5-6.9,6.2c-2.2,5.3-4.5,10.6-7,15.8c-2.3,4.4-5.5,7.7-7.5,7.7c-0.1,0-0.1,0-0.2,0
		c-0.3,0-0.5-0.1-0.6-0.3c-0.2-0.4-0.2-1.6,1.4-4.7c3.4-6.8,6.7-13.9,9.7-20.8c0-0.1,0-0.2,0-0.3c0-0.1-0.1-0.1-0.2-0.1
		c-1.8-0.1-3.6-0.3-5.4-0.4h0c-0.1,0-0.2,0.1-0.2,0.2c-2.7,5.9-5.6,11.9-8.6,17.7c-2.4,4.3-5.7,7.3-7.7,7.3c-0.1,0-0.2,0-0.2,0
		c-0.3,0-0.5-0.2-0.6-0.4c-0.2-0.5-0.1-1.7,1.6-4.6c0,0,0,0,0-0.1c0-0.1,0.1-0.2,0.2-0.4c1.8-3.2,4.7-8.6,8.6-16.3
		c1.4-2.8,3.2-3.5,3.4-3.5c0,0,0.1,0,0.1-0.1c0.1-0.1,0.1-0.2,0.1-0.2c-0.2-1.1-0.5-2.2-0.7-3.4c0-0.1-0.1-0.2-0.2-0.2
		c-0.2,0-0.4,0-0.6,0c-2.1,0-4.1,1-5.7,2.9c-1.6,0.4-3.3,0.7-5,1c-6.4,1.2-13.1,2.3-14.3,8.9c-0.4,2,0,4,1,5.7
		c1.2,1.9,3.2,3.2,5.7,3.7c0,0,0,0,0,0c0.1,0,0.1,0,0.2,0c0.1,0,0.1-0.1,0.1-0.2c0-0.2,0.1-0.5,0.1-0.7c0.2-1.4,0.4-2.7,0.6-4.1
		c0-0.1-0.1-0.3-0.2-0.3c-0.8-0.1-1.5-0.6-1.9-1.2c-0.4-0.5-0.5-1.2-0.4-1.9c0.5-3,4.6-3.8,8.8-4.6c0.6-0.1,1.1-0.2,1.7-0.3
		c-2.2,4.1-4.4,8.2-6.7,12.1C42.8,171,42,174.6,43,177c0.7,1.6,2.1,2.6,4.2,2.9c0.4,0.1,0.7,0.1,1.1,0.1c3.3,0.1,6.2-1.8,7.4-2.7
		c0,0.9,0.3,1.8,0.9,2.5c0.8,1.1,2.2,1.8,4.1,2c0.3,0,0.6,0.1,1,0.1c7.2,0.1,11.6-7.5,13.5-12c2.2-4.9,4.3-9.9,6.2-14.9
		c1.2-2.7,4.1-3.1,5.3-3.1c0.3,0,0.6,0,0.7,0c0.8,0.1,1.7,0.2,2.6,0.4c0,0,0,0,0.1,0c0.4,0.1,0.9,0.2,1.4,0.3c0.1,0,0.1,0,0.2,0.1
		c0.2,0.1,0.4,0.1,0.6,0.1c0.1,0,0.3,0.1,0.4,0.1c0.1,0,0.3,0.1,0.4,0.1c0.2,0.1,0.5,0.1,0.7,0.2c0.9,0.3,1.7,0.5,2.6,0.8
		c1.2,0.3,2.4,0.6,3.6,0.9c1.4,0.3,2.6,0.5,3.7,0.6c0.7,0.1,1.5,0.1,2.2,0c0.5,0,1.1-0.1,1.6-0.2c0.7-0.1,1.3-0.2,1.8-0.4
		c0.3-0.1,0.6-0.2,0.9-0.3c0.1,0,0.2-0.1,0.3-0.1c0.2-0.1,0.4-0.1,0.6-0.2c1-0.4,2-1,3-1.9c1.5-1.3,2.5-2.6,3.4-3.7
		c0.3-0.4,0.7-1,1.1-1.6c0,0,0,0,0,0c0-0.1,0-0.2,0-0.2"/>
	<path class="st2" d="M93.6,202.7c-0.2,1.1-0.8,2.5-1.1,2.9c0-0.1,0-0.1,0.1-0.2c0.4-1,0.7-2.1,1.1-3.1
		C93.6,202.3,93.6,202.5,93.6,202.7 M94.7,199c0.5-1.3,0.9-2.6,1.3-3.9c0.4-1,0.7-1.6,0.9-1.8c0,0.1,0,0.2-0.1,0.5
		c-0.1,0.5-0.6,2.2-1.5,4.1C95.2,198.4,95,198.8,94.7,199 M99.8,199.6c-0.3,0.5-0.6,0.9-0.9,0.9c-0.2,0-0.2-0.4-0.2-0.4
		c0-1.2,1.1-4.3,1.9-4.5c0,0,0,0,0.1,0c0.1,0,0.2,0.3,0.2,0.4c0,0.4-0.1,1.1-0.4,1.9c-0.5,0.1-0.9,0.6-0.8,1.1
		C99.6,199.2,99.7,199.4,99.8,199.6 M107.8,195.9c-0.1,0-0.1,0.1-0.2,0.1c-0.3,0.7-1.3,2.8-1.7,3c0-0.1,0-0.4,0.2-1.3l0.5-1.5
		c0.1-0.3,0.1-0.5,0.1-0.7c0-0.7-0.6-1.1-1.1-1.4c-0.1-0.1-0.2-0.1-0.3-0.2l0.3-1c0-0.1,0-0.2-0.1-0.3l-0.6-0.3c-0.1,0-0.2,0-0.2,0
		c-0.5,0.3-1.1,1.1-1.1,1.7c0,0.3,0.1,0.5,0.3,0.8c-0.3,0.9-0.7,1.7-0.9,2.3c-0.4,0.9-0.9,1.5-1.4,1.7c0.4-1,0.6-2.1,0.6-2.8
		c0-1.2-0.7-1.9-1.8-1.6c-2,0.4-2.9,3.3-3.1,4.1c-0.7,1.6-1.6,2.4-2.7,2.6c-0.3,0.1-0.5,0-0.7-0.1l0.2-0.5c1.5-0.4,1.9-1.2,2.5-2.4
		c0.6-1.3,1.2-3,1.4-4c0.2-0.9,0.2-1.6-0.1-2c-0.2-0.3-0.6-0.4-1.1-0.3c-1,0.2-1.7,1.1-2.4,3.1c-0.5,1.5-1,3-1.5,4.5
		c-0.4,0-0.7,0.1-1.1,0.2c-0.1,0-0.1,0-0.1,0.1c-0.2,0.2-0.2,0.7-0.1,0.9c0,0.1,0.1,0.1,0.2,0.1c0.3,0,0.5-0.1,0.7-0.1
		c-0.5,1.4-1,2.7-1.4,4.1c-0.3,0.9-0.4,1.6-0.1,2c0.2,0.2,0.4,0.4,0.8,0.4c0.1,0,0.2,0,0.3,0c1-0.2,1.5-1.1,1.8-1.7
		c0.4-0.8,0.7-1.7,0.8-2.5c0-0.2,0-0.4,0-0.6c1-0.2,1.8-0.7,2.5-1.5c0.2,0.9,0.8,1.4,1.8,1.2c0.8-0.2,1.6-0.8,2.2-1.8
		c1.1,0,2.2-0.9,2.9-2.5c0,0,0,0,0,0c0.3-0.7,0.6-1.5,0.8-2.1c0.2,0.1,0.3,0.2,0.3,0.3c0,0,0,0.1-0.1,0.4l-0.4,1.2
		c-0.4,1.3-0.5,2.2-0.1,2.7c0.2,0.2,0.4,0.4,0.8,0.4c0.1,0,0.2,0,0.4,0c1.2-0.3,2-1.9,2.9-3.9c0-0.1,0-0.1,0-0.2
		C108.5,196,108.1,195.8,107.8,195.9"/>
	<path class="st2" d="M106.1,202c-0.5-0.2-1-0.2-1.8-0.3h-0.1c-1.1,0-2.2,0.4-3.1,0.7c-1.9,0.7-3.7,1.7-5.6,3
		c-0.2,0.2-0.3,0.5-0.1,0.8c0.1,0.2,0.3,0.2,0.5,0.2h0c0.1,0,0.2,0,0.3-0.1c0.8-0.5,1.7-1,2.7-1.5c1-0.5,1.9-0.8,2.8-1.1
		c1-0.3,1.9-0.5,2.8-0.5c0.1,0,0.2,0,0.2,0l0.1,0c0.8,0,1.6,0.2,2.2,0.6c0.1,0.1,0.2,0.1,0.3,0.1h0c0.2,0,0.3-0.1,0.4-0.3
		c0.2-0.2,0.1-0.5-0.1-0.7C107.3,202.6,106.7,202.2,106.1,202"/>
	<path class="st2" d="M49.1,202.7c0.1,1,0.1,1.1-0.2,1.3c-0.3,0.1-0.7,0.2-1.1,0.2c-0.6,0.1-1.2,0.1-1.5-0.4
		c-0.3-0.5-0.6-1.1-0.7-2.3c-0.2-1.4-0.2-3.1-0.3-4.5c-0.6,1.8-1.4,5.3-1.5,5.6c-0.3,1-2.9,0.4-3.1-0.7c-0.4-2.6-0.5-4.1-0.5-5.5
		c-0.6,1.8-1.4,5.3-1.5,5.6c-0.3,0.9-0.5,1.1-0.8,1.1c-0.4,0-0.7-0.1-1.1-0.2c-0.6-0.2-1.1-0.4-1.2-1c-0.1-0.6,0.1-1.2,0.3-2.3
		c0.5-1.8,1.4-5,2.5-8.6c0.3-0.9,1-1.3,1.9-1.4c0.7-0.1,1.5-0.1,1.9,0.4c0.1,0.2,0.5,3.1,0.6,5.3c0.2-0.7,0.8-3,1-3.8
		c0.3-0.9,0.8-1.3,1.9-1.4c0.7-0.1,1.5-0.1,1.9,0.4C48,191.3,48.9,201.8,49.1,202.7"/>
	<path class="st2" d="M61.3,191.9c-0.4,10.9-2.3,12.9-6.5,12.7c-4.3-0.2-4.7-3.9-4.5-6.5c0.1-1.8,0.3-3.4,0.5-5.4
		c0.1-1.2,0.2-1.4,0.6-1.5c0.4-0.1,0.8-0.1,1.3-0.1c0.7,0.1,1.9,0.1,1.8,0.8c-0.5,2.7-0.7,4-0.8,6.2c-0.1,1.4,0,3.3,1.6,3.3
		c1.6,0.1,2-1.1,2.4-8.8c0.1-1.2,0.2-1.4,0.5-1.5c0.4-0.1,0.8-0.1,1.3-0.1C60.2,191.3,61.3,191.2,61.3,191.9"/>
	<path class="st2" d="M71.8,200.9c-0.1,3-2.6,4.7-6.2,4.5c-1.8-0.1-4.1-0.8-3.6-2.6c0.5-1.8,1-1.5,2.4-1c1.5,0.5,4.1,1.2,4.2-0.3
		c0.1-1.6-6.6,0.1-6.3-5.8c0.2-3.1,2.4-3.8,6.8-3.9c1.5-0.1,2.2,0.4,2.2,2c-0.1,3.7-5.5,0.1-5.6,2.4C65.6,198.2,72,196.9,71.8,200.9
		"/>
	<path class="st2" d="M76.9,192.9c0.3,0.6-0.3,10.5-0.3,11.4c0,1-0.1,1.2-0.4,1.2c-0.3,0.1-0.7,0.1-1.1,0.1c-0.6,0-1.2-0.1-1.4-0.6
		c-0.3-0.5-0.3-1.2-0.3-2.3c-0.1-1.8-0.1-5.1,0-8.9c0-1.2,0.1-1.4,0.5-1.5c0.4-0.1,0.8-0.1,1.3-0.1
		C75.8,192.3,76.6,192.3,76.9,192.9"/>
	<path class="st2" d="M87.7,202.9c-0.1,1.6-1.8,2.7-4.2,3c-2.9,0.4-5.8-1-5.7-6.2c0.1-4.7,2.6-7.9,7.8-7.3c1.4,0.2,1.8,0.6,1.6,1.9
		c-0.1,0.8-0.3,1.5-1,1.4c-4.7-0.4-5,1.2-5,3.4c-0.1,2.9,0.3,3.9,2.1,3.8c1.1-0.1,1.9-0.8,2.5-1.8C86.8,199.5,87.8,201.4,87.7,202.9
		"/>
	<path class="st2" d="M120.9,202.8c0.1,0.6,0.1,1.2-0.3,1.6c-0.4,0.3-3.7,0.6-5.2,0.8c-0.3,0.1-0.6,0.1-1,0.1c-0.6,0-1.2,0-1.5-0.5
		c-0.3-0.5-0.4-1.2-0.5-2.3c-0.2-1.8-0.4-5.1-0.7-8.9c-0.1-1.2,0-1.4,0.4-1.5c0.4-0.1,0.8-0.2,1.3-0.2c0.7,0,1.5,0,1.8,0.6
		c0.3,0.5,0.5,6.7,0.5,9.8c0.9-0.2,2.1-0.5,3.5-0.7c1-0.2,1.2-0.1,1.3,0.2C120.7,202.1,120.8,202.4,120.9,202.8"/>
	<path class="st2" d="M124.4,192c0.4,0.6,0.7,10.4,0.8,11.4c0.1,1,0,1.2-0.3,1.3c-0.3,0.1-0.7,0.2-1.1,0.2c-0.6,0-1.2,0-1.5-0.4
		c-0.3-0.5-0.4-1.2-0.5-2.3c-0.2-1.8-0.5-5.1-0.9-8.9c-0.1-1.2,0-1.4,0.4-1.5c0.4-0.1,0.8-0.2,1.3-0.2
		C123.2,191.4,124.1,191.4,124.4,192"/>
	<path class="st2" d="M134.6,191.9c0.1,0.5,0.1,1-0.2,1.3c-0.3,0.2-2.4,0.9-4.8,1.5c0,0.5,0.1,1.1,0.1,1.7c1.3-0.2,2.7-0.4,3.1-0.5
		c0.9-0.2,1.1,0.3,1.2,0.9c0.2,1.2-0.3,1.6-4.2,2.4c0.1,1.8,0.2,3.4,0.3,3.7c0.1,1,0,1.1-0.3,1.3c-0.3,0.1-0.7,0.2-1.1,0.2
		c-0.6,0-1.2,0-1.5-0.4c-0.3-0.5-0.5-1.2-0.6-2.3c-0.1-0.7,0-4,0-6.4c-0.5,0.1-0.7,0-0.8-0.3c-0.2-0.3-0.2-0.7-0.3-1.1
		c-0.1-0.6-0.2-1.3,0.3-1.7c0.5-0.3,6.6-1.2,7.4-1.3c0.8-0.1,1-0.1,1.1,0.1C134.5,191.2,134.5,191.5,134.6,191.9"/>
	<path class="st2" d="M145.7,200.6c0.1,0.6,0.2,1.2-0.3,1.6c-0.4,0.4-5,1-5.8,1.2c-0.4,0.1-0.6,0.1-0.8,0.1c-0.1,0-0.1,0-0.2,0
		c-0.6,0-1.2,0.1-1.5-0.4c-0.3-0.5-0.5-1.1-0.6-2.3c-0.1-0.7-0.1-4-0.1-6.4c-0.5,0.1-0.7,0-0.8-0.3c-0.2-0.3-0.2-0.7-0.3-1.1
		c-0.1-0.6-0.2-1.3,0.3-1.7c0.5-0.4,6.6-1.3,7.4-1.5c0.8-0.2,1-0.1,1.1,0.1c0.1,0.3,0.2,0.6,0.3,0.9c0.1,0.5,0.1,1-0.2,1.3
		c-0.3,0.2-2.4,0.9-4.8,1.6c0.1,0.5,0.1,1.1,0.1,1.7c1.3-0.2,2.7-0.4,3.1-0.5c0.9-0.2,1.1,0.3,1.2,0.9c0.2,1.2-0.3,1.6-4.1,2.4
		c0.1,0.9,0.1,1.6,0.2,2.3c1-0.3,2.4-0.7,4.2-1.1c1-0.2,1.2-0.1,1.3,0.2C145.5,199.9,145.6,200.2,145.7,200.6"/>
</g>
</svg>
